<svg width="24" height="24" viewBox="0 0 24 24" fill="none" xmlns="http://www.w3.org/2000/svg">
<path fill-rule="evenodd" clip-rule="evenodd" d="M20.3613 18.5795C19.9557 18.97 19.4179 19.2212 18.8253 19.2636L17.1874 19.3808C13.7336 19.6279 10.2665 19.6279 6.81264 19.3808L5.29864 19.2725C4.10261 19.1869 3.1161 18.3027 2.90058 17.1232C2.46392 14.7333 2.38916 12.2913 2.67882 9.87915L2.9513 7.61004C3.11301 6.26343 4.25541 5.25 5.6117 5.25H7.90327C9.02102 5.25 9.95229 6.04846 10.1578 7.10612L18.4722 7.10612C19.7786 7.10612 20.8913 8.05533 21.0972 9.34535L21.1613 9.74679C21.1748 9.83114 21.1877 9.91554 21.2002 10H21.5362C23.0086 10 24.0209 11.4798 23.4873 12.8521L22.2378 16.065C21.8498 17.0626 21.1989 17.9301 20.3613 18.5795ZM19.616 9.58178L19.6801 9.98322C19.6809 9.98881 19.6818 9.99441 19.6827 10H10.3705C9.23475 10 8.21588 10.6981 7.80589 11.7573L5.47405 17.7812L5.40568 17.7763C4.8922 17.7396 4.46868 17.36 4.37615 16.8536C3.96652 14.6116 3.89639 12.3208 4.16812 10.058L4.4406 7.78888C4.51179 7.19611 5.01467 6.75 5.6117 6.75H7.90327C8.34331 6.75 8.70003 7.10672 8.70003 7.54677C8.70003 8.13183 9.17432 8.60612 9.75939 8.60612H18.4722C19.0414 8.60612 19.5263 9.0197 19.616 9.58178ZM7.03921 17.8931C10.3822 18.1266 13.7376 18.1238 17.0804 17.8846L18.7183 17.7674L18.9128 17.7492L18.9115 17.7468C19.792 17.25 20.4734 16.4636 20.8398 15.5213L22.0893 12.3084C22.2405 11.9195 21.9536 11.5 21.5362 11.5H10.3705C9.85423 11.5 9.3911 11.8173 9.20475 12.2988L7.03921 17.8931Z" fill="white"/>
</svg>
