<svg width="21" height="21" viewBox="0 0 21 21" fill="none" xmlns="http://www.w3.org/2000/svg">
<path d="M10.5 1.3125C5.43401 1.3125 1.3125 5.43401 1.3125 10.5C1.3125 15.566 5.43401 19.6875 10.5 19.6875C15.566 19.6875 19.6875 15.566 19.6875 10.5C19.6875 5.43401 15.566 1.3125 10.5 1.3125ZM2.38114 11.025H5.65189C5.68654 12.2469 5.8422 13.3977 6.09682 14.4375H3.38179C2.79879 13.3885 2.45687 12.2227 2.38087 11.025H2.38114ZM11.025 5.5125V2.44965C11.9524 2.75415 12.862 3.84641 13.4875 5.5125H11.025ZM13.8214 6.5625C14.0881 7.56105 14.2603 8.70896 14.2978 9.975H11.025V6.5625H13.8214ZM9.975 2.44965V5.5125H7.51249C8.13802 3.84641 9.04759 2.75441 9.975 2.44965ZM9.975 6.5625V9.975H6.70215C6.73969 8.70896 6.91189 7.56105 7.17859 6.5625H9.975ZM5.65162 9.975H2.38114C2.45705 8.77729 2.79889 7.61155 3.38179 6.5625H6.09682C5.8422 7.60226 5.68654 8.75306 5.65162 9.975V9.975ZM6.70215 11.025H9.975V14.4375H7.17859C6.91189 13.4389 6.73969 12.291 6.70215 11.025ZM9.975 15.4875V18.5503C9.04759 18.2458 8.13802 17.1536 7.51249 15.4875H9.975V15.4875ZM11.025 18.5503V15.4875H13.4875C12.862 17.1536 11.9524 18.2456 11.025 18.5503ZM11.025 14.4375V11.025H14.2978C14.2603 12.291 14.0881 13.4389 13.8214 14.4375H11.025ZM15.3484 11.025H18.6189C18.5429 12.2227 18.2011 13.3885 17.6182 14.4375H14.9032C15.1578 13.3977 15.3135 12.2469 15.3484 11.025ZM15.3484 9.975C15.3135 8.75306 15.1578 7.60226 14.9032 6.5625H17.6182C18.2011 7.61155 18.5429 8.77729 18.6189 9.975H15.3481H15.3484ZM16.9231 5.5125H14.5995C14.239 4.44019 13.7644 3.52537 13.2043 2.82634C14.6751 3.34815 15.9657 4.28029 16.9234 5.5125H16.9231ZM7.79572 2.82634C7.23555 3.52537 6.76095 4.44019 6.40054 5.5125H4.07689C5.03453 4.28033 6.32502 3.3482 7.79572 2.82634V2.82634ZM4.07662 15.4875H6.40027C6.76069 16.5598 7.23529 17.4746 7.79546 18.1737C6.32476 17.6518 5.03427 16.7197 4.07662 15.4875V15.4875ZM13.204 18.1737C13.7642 17.4746 14.2388 16.5598 14.5992 15.4875H16.9228C15.9652 16.7197 14.6747 17.6518 13.204 18.1737Z" fill="black"/>
</svg>
