<svg width="17" height="17" viewBox="0 0 17 17" fill="none" xmlns="http://www.w3.org/2000/svg">
<path d="M7.94675 12.819V13.4892C7.94675 13.667 7.87614 13.8375 7.75045 13.9632C7.62476 14.0888 7.45429 14.1595 7.27654 14.1595H5.93613V14.8297C5.93613 15.1852 5.79491 15.5261 5.54353 15.7775C5.29215 16.0289 4.95121 16.1701 4.59571 16.1701H1.91488C1.55938 16.1701 1.21844 16.0289 0.967062 15.7775C0.715685 15.5261 0.574463 15.1852 0.574463 14.8297V13.0965C0.574539 12.741 0.715811 12.4001 0.967205 12.1488L6.15462 6.96142C5.83654 5.88136 5.86655 4.72858 6.24039 3.66653C6.61422 2.60449 7.31291 1.68708 8.23738 1.04439C9.16186 0.401699 10.2652 0.0663499 11.3909 0.085891C12.5167 0.105432 13.6077 0.478871 14.5093 1.15326C15.4109 1.82764 16.0774 2.76875 16.4141 3.84313C16.7509 4.91751 16.7409 6.07064 16.3855 7.13901C16.0301 8.20738 15.3474 9.13676 14.4343 9.79538C13.5211 10.454 12.4237 10.8084 11.2978 10.8084H9.95604V12.1488C9.95604 12.3266 9.88543 12.4971 9.75974 12.6227C9.63405 12.7484 9.46358 12.819 9.28583 12.819H7.94541H7.94675ZM12.6382 5.44675C12.9937 5.44675 13.3347 5.30553 13.586 5.05415C13.8374 4.80277 13.9786 4.46183 13.9786 4.10633C13.9786 3.75083 13.8374 3.40989 13.586 3.15851C13.3347 2.90714 12.9937 2.76592 12.6382 2.76592C12.2827 2.76592 11.9418 2.90714 11.6904 3.15851C11.439 3.40989 11.2978 3.75083 11.2978 4.10633C11.2978 4.46183 11.439 4.80277 11.6904 5.05415C11.9418 5.30553 12.2827 5.44675 12.6382 5.44675Z" fill="black"/>
</svg>
